<svg xmlns="http://www.w3.org/2000/svg" version="1.1" viewBox="-5.0 -10.0 110.0 135.0">
 <g>
  <path d="m39.062 9.375h-26.562c-1.7188 0-3.125 1.4062-3.125 3.125v9.375h28.125zm-23.438 7.8125c-0.85938 0-1.5625-0.70312-1.5625-1.5625s0.70312-1.5625 1.5625-1.5625 1.5625 0.70312 1.5625 1.5625-0.70312 1.5625-1.5625 1.5625zm7.8125 0c-0.85938 0-1.5625-0.70312-1.5625-1.5625s0.70312-1.5625 1.5625-1.5625 1.5625 0.70312 1.5625 1.5625-0.70312 1.5625-1.5625 1.5625zm7.8125 0c-0.85938 0-1.5625-0.70312-1.5625-1.5625s0.70312-1.5625 1.5625-1.5625 1.5625 0.70312 1.5625 1.5625-0.70312 1.5625-1.5625 1.5625z"/>
  <path d="m87.5 9.375h-45.328v0.39062l-1.5156 12.109h49.969v-9.375c0-1.7188-1.4062-3.125-3.125-3.125z"/>
  <path d="m35.938 63.281h39.062v4.6875h-39.062z"/>
  <path d="m35.938 78.906h39.062v4.6875h-39.062z"/>
  <path d="m9.375 25v62.5c0 1.7188 1.4062 3.125 3.125 3.125h75c1.7188 0 3.125-1.4062 3.125-3.125v-62.5zm35.422 17.547c-1.5938-1.4219-2.6094-3.5156-2.6094-5.8281 0-4.3125 3.5-7.8125 7.8125-7.8125s7.8125 3.5 7.8125 7.8125c0 2.3125-1.0156 4.4062-2.6094 5.8281 4.3125 1.9844 7.2969 6.3281 7.2969 11.359 0 0.85938-0.70312 1.5625-1.5625 1.5625h-21.875c-0.85938 0-1.5625-0.70312-1.5625-1.5625 0-5.0312 2.9844-9.375 7.2969-11.359zm33.328 41.047c0 1.7188-1.4062 3.125-3.125 3.125h-50c-1.7188 0-3.125-1.4062-3.125-3.125v-4.6875c0-1.7188 1.4062-3.125 3.125-3.125h50c1.7188 0 3.125 1.4062 3.125 3.125zm0-15.625c0 1.7188-1.4062 3.125-3.125 3.125h-50c-1.7188 0-3.125-1.4062-3.125-3.125v-4.6875c0-1.7188 1.4062-3.125 3.125-3.125h50c1.7188 0 3.125 1.4062 3.125 3.125z"/>
 </g>
<text x="0.0" y="117.5" font-size="5.0" font-weight="bold" font-family="Arbeit Regular, Helvetica, Arial-Unicode, Arial, Sans-serif" fill="#000000">Created by Andi Nur Abdillah</text><text x="0.0" y="122.5" font-size="5.0" font-weight="bold" font-family="Arbeit Regular, Helvetica, Arial-Unicode, Arial, Sans-serif" fill="#000000">from Noun Project</text></svg>